<svg xmlns="http://www.w3.org/2000/svg" viewBox="-9954 -23066 641 387" preserveAspectRatio="xMidYMid" width="641" height="387"><style id="style311">.c{stroke-miterlimit:10;stroke-width:2px;fill:none;stroke:rgba(0,0,0,.08)}</style><path d="M-9549-22810a7 7 0 0 0 4 2 17 17 0 0 1 6 3 2 2 0 0 0 1 0c3 1 13-4 14-7 2-2 2-5 5-5 2 2 5 3 5 7 0 3 3 3 4 1a25 25 0 0 1 8-3c1-1 2-2 4-1s4-1 5-2c4-3 7-4 11-2 2 1 4 0 5-2 2-3 5-5 9-5s4 3 7 5c2-6 6-10 8-15 1-2 2-5 4-6 4-2 4-6 2-8-2-4 1-6 3-9a9 9 0 0 0 2-5c1-2 0-4 2-4a1 1 0 0 0 0-2c-2-3 1-8 0-12h1l8 6a21 21 0 0 1 5 4 4 4 0 0 0 4 3 3 3 0 0 1 3 2l2 2c5-2 4 0 8 3l1 1c5 3 5 7 3 12a3 3 0 0 0 1 3c3 0 3-3 4-5 1-3 4-4 7-5 3 0 5-1 5-4l3-3 4 3c5 4 10 4 15-1a2 2 0 0 1 1-1 6 6 0 0 0 6-2c2 3 5 6 10 6 2-1 4-1 4-3 2-2 1-4-1-5a2 2 0 0 1-1-2c1-2 2-2 3-1 4 1 6-1 8-4 2-4 5-6 10-6 6 1 10-6 12-9v-1c-7 1-13-1-19-3a25 25 0 0 1-8-6 32 32 0 0 0-7-5c1-3 1-5-1-7-2-3-1-7-3-11a14 14 0 0 1 0-4 3 3 0 0 0-3-2c-4 0-7-2-11-3h-6c-2 0-3 0-4-2l1-3a4 4 0 0 0 2-5c-3-5 0-8 3-11a10 10 0 0 0 2-1c-4-6-5-13-10-19 0-5-1-6-7-6l-4-1c-2 1-1 5-4 4-2 0-4 2-5 1a24 24 0 0 1-4-7c-2-5-3-6-9-6-2 0-5 0-7-2l6-9c2-2 0-4-1-5a17 17 0 0 0-5-4c-2-2-4-3-3-6s2-6-2-8v-4c0-3-2-7 1-10a45 45 0 0 0 4-3 2 2 0 0 1 2-1c5 3 9 1 12-1l3 1c2-4 5-7 4-11 0-3 0-5 3-5 3-1 3-2 2-5-2-4-4-7-9-7a8 8 0 0 1-5-2 30 30 0 0 1-16 7h-6a3 3 0 0 0-2 0c-3 1-7 3-8 6s-4 3-5 2c-4-1-7 0-9 3s-4 3-8 2c-6-1-11 1-16 5a5 5 0 0 1-4 1 10 10 0 0 0-9 4 25 25 0 0 1-8 6l-10 8-6 3-13 1-2-1-5 8a3 3 0 0 1-3 2 4 4 0 0 0-3 1c-3-2-7-4-8-8-1-3-7-5-11-3a6 6 0 0 1-5 0c-4-2-8-3-10-8-1-1-4 1-5-1a142 142 0 0 1-24 13c-3-5-8-8-13-10-4-2-6-1-7 3v2c-7 2-10 11-18 13-5 1-7 0-10-3l-4-5c-3-2-5-3-8-1-3 1-5-2-7-2a7 7 0 0 1-8 3c-2-1-5 1-7 1-3 0-5 3-7 4s-4 2-7 1c-2 0-4 2-5 3l-4-3a2 2 0 0 0-3 0 7 7 0 0 1-6 3c-1 2-1 6 1 8-5 4-5 5-17 7-1 2-1 5-4 6l-1 4a20 20 0 0 1-3 13c-2 3-5 8-5 12l1 6c2 1 2 4 2 6-5 1-8 4-11 6-3 3-4 7-6 11a27 27 0 0 1-3 5 4 4 0 0 0-2-1c-4 2-7 3-11 0a4 4 0 0 0-2-1c-7 0-13-2-20 2-3 2-6 4-9 1s-7-3-10-6c-1-1-2-2-4 0-2 3-3 3-5 0l-5-6a3 3 0 0 0-5 0c-3 3-6 2-10 3-3 0-6-1-6-4 2-3 5-3 6-6l4-4c1-1 2-2 1-3-2-2-3-4-6-4a11 11 0 0 1-8-5 7 7 0 0 0-4-2c-2 0-2-2-3-3 0-2 1-5-2-6s-7-4-10 0l-5 2c-7 0-12 3-17 7-3 2-5 5-9 4h-2l3-3c-2-3-4-1-6-1-6 1-13 2-18-5-2 2-2 5-3 8-3 5-2 10-5 15l-3 4c-4 1-4 4-2 7 2 2 3 5 3 9l-1 3c-5 2-7 6-11 9l4 6c1 3 0 4-2 5-3 3-3 7-7 10v2c3 5 2 12 5 18 0 1 1 2 3 1l8-1a6 6 0 0 1 4 1l9 9c2 1 2 2 1 4-2 1-1 2-1 4 0 4 1 9-2 12-1 1-2 4-1 6 0 2-1 5-4 7l-2 4c-1 7 1 11 6 15a3 3 0 0 0 3 1c5-2 9-2 13 1h1c6-1 7 5 11 7l2 2c6 0 7 5 10 8 2 4 6 4 10 3s7-4 11-1c3-3 6-7 11-4 3-5 7-9 11-11a6 6 0 0 1 3-1c1 0 2 1 2 3l1 1c5 3 4 9 7 13a4 4 0 0 0 4 2l12 1c2 0 3 1 4 3 3-3 5-6 8-6 3 3 7 3 10 1s5-3 6-6l2-2a10 10 0 0 0 8-7h4a15 15 0 0 1 9 5l9 10c0 1 1 2 2 1 4-2 6 1 8 2 3 0 1-3 2-3-2-2-4-5-2-8v-2c-3-2-3-6-5-8l-1-2c1-3-1-6-4-9 5 0 10-2 13-7 2 3 3 6 2 10-1 3 2 4 4 5a15 15 0 0 1 9 7c6-3 12-6 17-11 4 3 6 6 7 11l2 8a52 52 0 0 0-1 10v1c-4 5-2 10-1 16a4 4 0 0 1-1 4 10 10 0 0 0-2 7c0 2 1 4-2 5-2 0-1 3 0 3 3 4 1 8-1 12l-6 12a12 12 0 0 1-7 6 10 10 0 0 0-2 2c0 3 3 4 4 7 0 2 4 3 5 3 4-2 6 1 8 2l-1 4h-2s0-2-1-1c-2 0-5 5-4 7a4 4 0 0 0 5 3c1 2 1 4 3 5 3 0 6 0 9-2a78 78 0 0 0 17-18c2-3 4-2 6-1a5 5 0 0 0 2-5c0-3 1-5 4-7a40 40 0 0 0 3-2c2 2 2 6 6 8l1 2c0 4 2 4 4 4a27 27 0 0 0 7 0c3-1 3-2 2-4a34 34 0 0 1-3-4c-2-3-3-6-8-6a2 2 0 0 1-1-2h1c6 1 9-2 12-7a15 15 0 0 1 1-2 3 3 0 0 1 3-1 19 19 0 0 0 6-1c2 0 4 1 4-1 1-3 4-2 4-5-1-3 1-4 4-5 2-1 2-3 2-4 7 1 14 2 20 6h3a6 6 0 0 0 2-5v-6c1-2 2-4 4-3 3 1 4-2 7-2a3 3 0 0 0 2-3c-1-2 1-5 2-7 3-5 3-11 4-17 0-3 1-8 3-10l6-6-4-6c1-3 2-1 3-1h9c5 0 8-5 12-7z" stroke-miterlimit="10" stroke-width="2" fill="#fff" stroke="rgba(0,0,0,.1)" id="path7488"/><path class="c" d="M-9515-23032a10 10 0 0 0-1 2 8 8 0 0 1-8 4l-13 2a67 67 0 0 1-8 0c-4 0-6 3-10 5l-1 4m70 85c4 0 8 0 12-2a10 10 0 0 1 8-1c3 1 6 1 8-2 2-1 6-1 9 2l7 8 1 2c-2 2-1 3 2 3l4 2c5-5 11-4 17-5-2 4-3 7-7 7-3 1-4 4-5 6 1 2 3 4 6 4l9 2m-342 12c2 2 4 2 3 6a39 39 0 0 0 1 16c1 6 0 8-6 9a16 16 0 0 0-8 2c-2 1-6-1-8 2-4 3-9 4-13 8-4 0-6 5-10 6-3 0-5 1-6 5 0 2-3 4-5 6a39 39 0 0 0-7 8m175 36v1c2 4 6 5 10 8 2 2 6 1 10 0 4 3 8 6 14 6 3 0 5 2 7 4a5 5 0 0 1 1 1m-31-192c-4 3-9 5-14 6l-2 1c0 3-5 5-5 9a7 7 0 0 1-3 6c-4 2-4 6-5 10 3 3-1 7 0 10l1 3c2 2 2 5 0 7v7c5 9 4 17-3 23l-2 1c-3 1-6 1-7 4 0 2-3 2-5 3-6 3-6 3-2 9-2 2-2 5-5 5v1c3 3 5 4 6 8 1 3 0 4-2 6l-4 3a19 19 0 0 1-5 3v3" id="path7079" transform="translate(-24 26)"/><path class="c" d="M-9692-23023c3 2 5 5 9 6v1l1 13 2 14 1 2c-1 3 0 4 2 5h3c4 4 9 3 14 5 5 1 10-1 15 1s9 5 11 10c1 2 2 4 5 5v1a9 9 0 0 0 3 0c2 1 4 0 5-2 3-4 8-4 12-6 2 0 3 2 4 3 2 4 3 4 8 1l4 10 1 3a3 3 0 0 0 1 0l4 3c2 3 3 2 5 0a19 19 0 0 1 2-2c2-1 4-2 6 0 1 2 4 3 6 4h5c2-1 3-1 5 1 2-2 3-5 6-6v-4c0-4 0-7-4-9-2 0-4-3-4-6s-1-4-4-5l-2-1a1 1 0 0 0-1 0h2l3-4c-3-3-3-6-1-9 1-3 1-5-1-7a4 4 0 0 1-1-5v-6l6-6a5 5 0 0 1 3-2 6 6 0 0 1 4 1c3 2 4 6 5 9v1c-1 4-1 4 3 5l3 1c1 4 4 7 7 11v3c0 4 1 9-1 13-1 2 0 4 1 6 4-1 7 4 11 4 1 0 3 2 5 0l3 1a30 30 0 0 0 11 4c2 0 2 1 3 3l2 5c0 4 3 5 6 8l5 10v4c2 3 0 7-3 8a17 17 0 0 0-9 18 9 9 0 0 1 0 2 5 5 0 0 0 3 6c2 1 2 3 2 5l-1 2c-4 1-5 4-7 6-4 3-8 7-14 6l-4 1c-2-2 0-5-1-7l-13 4c-1 1-1 2-3 2-1 0-4 0-5 2l-4 8h-1l4 4c5 0 9 2 13 4 3 2 3 4 1 6-1 2-1 4 1 7a8 8 0 0 1 2 4 6 6 0 0 0 1 3m-212-112c3 3 2 7 6 9-9 3-16 8-21 16a19 19 0 0 1 8 6c1 2 1 3-1 5-4 3-5 3-9-1-3 1-5 4-7 6 2 2 4 4 4 6v3c2 0 0 0 1 1a12 12 0 0 1-1 2l1 2" id="path3871" transform="translate(-25 26)"/><path class="c" d="M-9593-22951l-2 4c2 2 0 5 3 7 4 3 3 8 5 12l-2 5a9 9 0 0 0-5 7c0 3-2 5-5 6a25 25 0 0 0-9 7l-3-3c-2 5-3 9-8 11a10 10 0 0 0 4 3c5 2 5 6 2 10h2c3 3 4-2 6-2 2 2 0 4-1 6-2 4 1 10 6 9a7 7 0 0 1 7 3c3 3 6 3 10 3 2 0 3-2 4-4l8-3 6 1c6-1 12 0 16 4l1 1m-133 27l4 2c2 1 1 4 3 4 2-1 5-1 6-3 2 3 6 5 8 6a5 5 0 0 1 0 1l7 7 1 2c-3 6 1 11 5 15 2 3 2 4 0 7-3 2-2 4 1 5a51 51 0 0 0 5 2 8 8 0 0 0 3 0l3-1c0-4 3-6 4-10 0-4 1-7 5-8a8 8 0 0 0 2-1l3 2c2 0 2-2 4-3-4-4-4-10-7-14 2-2 4-1 6-2-1-2-1-4-4-2l-4-3c-1-2-4-2-7-2h-2a2 2 0 0 1 0-3c3-3 3-3-1-5a2 2 0 0 0-1 0c-1 1-2 3-4 3a5 5 0 0 0-4 3c-2 3-5 3-7 3-3 0-6 1-8 4" id="path6956" transform="translate(-25 26)"/></svg>
